{"title":"Kataklysm - Heaven's Venom (2010) [FLAC]","uid":5796335,"size":376481536,"categoryP":"audio","categoryS":"flac","magnet":"?xt=urn:btih:3408f6e8affebab408cbf8bc60fdf986adf8438c&amp;dn=Kataklysm+-+Heaven%5C%27s+Venom+%282010%29+%5BFLAC%5D&amp;tr=udp%3A%2F%2Ftracker.openbittorrent.com%3A80&amp;tr=udp%3A%2F%2Fopen.demonii.com%3A1337&amp;tr=udp%3A%2F%2Ftracker.coppersurfer.tk%3A6969&amp;tr=udp%3A%2F%2Fexodus.desync.com%3A6969","seeders":0,"leechers":1,"uploader":"Tsuribachi","files":13,"time":1283072396,"description":"Exact Audio Copy V0.99 prebeta 5 from 4. May 2009\n\nEAC extraction logfile from 20. August 2010, 4:05\n\nKataklysm / Heaven's Venom\n\nUsed drive  : SONY    DVD RW DW-U12A   Adapter: 1  ID: 0\n\nRead mode               : Secure\nUtilize accurate stream : Yes\nDefeat audio cache      : Yes\nMake use of C2 pointers : No\n\nRead offset correction                      : 120\nOverread into Lead-In and Lead-Out          : No\nFill up missing offset samples with silence : Yes\nDelete leading and trailing silent blocks   : No\nNull samples used in CRC calculations       : Yes\nUsed interface                              : Installed external ASPI interface\nGap handling                                : Appended to previous track\n\nUsed output format              : User Defined Encoder\nSelected bitrate                : 128 kBit/s\nQuality                         : High\nAdd ID3 tag                     : No\nCommand line compressor         : C:\\Program Files\\Exact Audio Copy\\Flac\\flac.exe\nAdditional command line options : -V -8 -T &quot;artist=%a&quot; -T &quot;title=%t&quot; -T &quot;album=%g&quot; -T &quot;date=%y&quot; -T &quot;tracknumber=%n&quot; -T &quot;genre=%m&quot; %s\n\n\nTOC of the extracted CD\n\n     Track |   Start  |  Length  | Start sector | End sector \n    ---------------------------------------------------------\n        1  |  0:00.00 |  5:42.65 |         0    |    25714   \n        2  |  5:42.65 |  4:48.10 |     25715    |    47324   \n        3  | 10:31.00 |  5:37.55 |     47325    |    72654   \n        4  | 16:08.55 |  3:27.38 |     72655    |    88217   \n        5  | 19:36.18 |  5:27.03 |     88218    |   112745   \n        6  | 25:03.21 |  4:51.14 |    112746    |   134584   \n        7  | 29:54.35 |  3:26.16 |    134585    |   150050   \n        8  | 33:20.51 |  3:59.26 |    150051    |   168001   \n        9  | 37:20.02 |  4:01.73 |    168002    |   186149   \n       10  | 41:22.00 |  5:19.19 |    186150    |   210093   \n\n\nTrack  1\n\n     Filename I:\\UPLOADS\\FLAC\\Kataklysm - 2010 - Heaven's Venom\\01 - A Souless God.wav\n\n     Pre-gap length  0:00:02.00\n\n     Peak level 98.8 %\n     Track quality 100.0 %\n     Test CRC 94E24F8E\n     Copy CRC 94E24F8E\n     Track not present in AccurateRip database\n     Copy OK\n\nTrack  2\n\n     Filename I:\\UPLOADS\\FLAC\\Kataklysm - 2010 - Heaven's Venom\\02 - Determined (Vows Of Vengeance).wav\n\n     Peak level 98.8 %\n     Track quality 100.0 %\n     Test CRC 96E8ECA3\n     Copy CRC 96E8ECA3\n     Track not present in AccurateRip database\n     Copy OK\n\nTrack  3\n\n     Filename I:\\UPLOADS\\FLAC\\Kataklysm - 2010 - Heaven's Venom\\03 - Faith Made Of Shrapnel.wav\n\n     Peak level 98.8 %\n     Track quality 100.0 %\n     Test CRC 2B7C9C23\n     Copy CRC 2B7C9C23\n     Track not present in AccurateRip database\n     Copy OK\n\nTrack  4\n\n     Filename I:\\UPLOADS\\FLAC\\Kataklysm - 2010 - Heaven's Venom\\04 - Push The Venom.wav\n\n     Peak level 98.8 %\n     Track quality 100.0 %\n     Test CRC AD8F573A\n     Copy CRC AD8F573A\n     Track not present in AccurateRip database\n     Copy OK\n\nTrack  5\n\n     Filename I:\\UPLOADS\\FLAC\\Kataklysm - 2010 - Heaven's Venom\\05 - Hail The Renegade.wav\n\n     Peak level 98.8 %\n     Track quality 100.0 %\n     Test CRC DD08D7DE\n     Copy CRC DD08D7DE\n     Track not present in AccurateRip database\n     Copy OK\n\nTrack  6\n\n     Filename I:\\UPLOADS\\FLAC\\Kataklysm - 2010 - Heaven's Venom\\06 - As The Walls Collapse.wav\n\n     Pre-gap length  0:00:00.82\n\n     Peak level 98.8 %\n     Track quality 100.0 %\n     Test CRC 74EA4ABF\n     Copy CRC 74EA4ABF\n     Track not present in AccurateRip database\n     Copy OK\n\nTrack  7\n\n     Filename I:\\UPLOADS\\FLAC\\Kataklysm - 2010 - Heaven's Venom\\07 - Numb &amp; Intoxicated.wav\n\n     Peak level 98.8 %\n     Track quality 99.9 %\n     Test CRC 2BCEB7C5\n     Copy CRC 2BCEB7C5\n     Track not present in AccurateRip database\n     Copy OK\n\nTrack  8\n\n     Filename I:\\UPLOADS\\FLAC\\Kataklysm - 2010 - Heaven's Venom\\08 - At The Edge Of The World.wav\n\n     Pre-gap length  0:00:00.05\n\n     Peak level 98.8 %\n     Track quality 100.0 %\n     Test CRC F5A023C2\n     Copy CRC F5A023C2\n     Track not present in AccurateRip database\n     Copy OK\n\nTrack  9\n\n     Filename I:\\UPLOADS\\FLAC\\Kataklysm - 2010 - Heaven's Venom\\09 - Suicide River.wav\n\n     Pre-gap length  0:00:00.76\n\n     Peak level 98.8 %\n     Track quality 100.0 %\n     Test CRC 9CC45A88\n     Copy CRC 9CC45A88\n     Track not present in AccurateRip database\n     Copy OK\n\nTrack 10\n\n     Filename I:\\UPLOADS\\FLAC\\Kataklysm - 2010 - Heaven's Venom\\10 - Blind Savior.wav\n\n     Peak level 98.8 %\n     Track quality 100.0 %\n     Test CRC BCD95B45\n     Copy CRC BCD95B45\n     Track not present in AccurateRip database\n     Copy OK\n\n\nNone of the tracks are present in the AccurateRip database\n\nNo errors occurred\n\nEnd of status report\n","torrent":{"xt":"urn:btih:3408f6e8affebab408cbf8bc60fdf986adf8438c","amp;dn":"Kataklysm+-+Heaven%5C%27s+Venom+%282010%29+%5BFLAC%5D","amp;tr":["udp%3A%2F%2Ftracker.openbittorrent.com%3A80","udp%3A%2F%2Fopen.demonii.com%3A1337","udp%3A%2F%2Ftracker.coppersurfer.tk%3A6969","udp%3A%2F%2Fexodus.desync.com%3A6969"],"infoHash":"3408f6e8affebab408cbf8bc60fdf986adf8438c","infoHashBuffer":{"type":"Buffer","data":[52,8,246,232,175,254,186,180,8,203,248,188,96,253,249,134,173,248,67,140]},"announce":[],"urlList":[]}}